<mxfile host="Electron" agent="Mozilla/5.0 (Macintosh; Intel Mac OS X 10_15_7) AppleWebKit/537.36 (KHTML, like Gecko) draw.io/24.7.17 Chrome/128.0.6613.36 Electron/32.0.1 Safari/537.36" version="24.7.17">
  <diagram name="Seite-1" id="bHmScug8bn_VCg0cK3As">
    <mxGraphModel dx="1256" dy="907" grid="1" gridSize="10" guides="1" tooltips="1" connect="1" arrows="1" fold="1" page="0" pageScale="1" pageWidth="827" pageHeight="1169" math="0" shadow="0">
      <root>
        <mxCell id="0" />
        <mxCell id="1" parent="0" />
        <mxCell id="lbv-A9O-sPdwKagMag57-12" style="edgeStyle=orthogonalEdgeStyle;rounded=0;orthogonalLoop=1;jettySize=auto;html=1;exitX=0.75;exitY=1;exitDx=0;exitDy=0;entryX=0.75;entryY=1;entryDx=0;entryDy=0;" edge="1" parent="1" source="lbv-A9O-sPdwKagMag57-10" target="lbv-A9O-sPdwKagMag57-9">
          <mxGeometry relative="1" as="geometry" />
        </mxCell>
        <mxCell id="Qy2m-y4au5o0b6GNsIZJ-49" style="edgeStyle=orthogonalEdgeStyle;rounded=0;orthogonalLoop=1;jettySize=auto;html=1;entryX=0.5;entryY=0;entryDx=0;entryDy=0;exitX=0.5;exitY=1;exitDx=0;exitDy=0;" parent="1" source="lbv-A9O-sPdwKagMag57-9" target="Qy2m-y4au5o0b6GNsIZJ-48" edge="1">
          <mxGeometry relative="1" as="geometry">
            <mxPoint x="180" y="400" as="sourcePoint" />
          </mxGeometry>
        </mxCell>
        <mxCell id="Qy2m-y4au5o0b6GNsIZJ-6" value="hat" style="rhombus;whiteSpace=wrap;html=1;" parent="1" vertex="1">
          <mxGeometry x="530" y="300" width="80" height="80" as="geometry" />
        </mxCell>
        <mxCell id="Qy2m-y4au5o0b6GNsIZJ-51" style="edgeStyle=orthogonalEdgeStyle;rounded=0;orthogonalLoop=1;jettySize=auto;html=1;" parent="1" source="Qy2m-y4au5o0b6GNsIZJ-48" edge="1">
          <mxGeometry relative="1" as="geometry">
            <mxPoint x="180" y="760" as="targetPoint" />
          </mxGeometry>
        </mxCell>
        <mxCell id="Qy2m-y4au5o0b6GNsIZJ-48" value="liegt" style="rhombus;whiteSpace=wrap;html=1;" parent="1" vertex="1">
          <mxGeometry x="140" y="520" width="80" height="80" as="geometry" />
        </mxCell>
        <mxCell id="lbv-A9O-sPdwKagMag57-9" value="Buch" style="swimlane;childLayout=stackLayout;horizontal=1;startSize=50;horizontalStack=0;rounded=1;strokeWidth=2;resizeParent=0;resizeLast=1;shadow=0;dashed=0;align=center;arcSize=4;whiteSpace=wrap;html=1;" vertex="1" parent="1">
          <mxGeometry x="120" y="240" width="120" height="160" as="geometry">
            <mxRectangle x="140" y="355" width="80" height="50" as="alternateBounds" />
          </mxGeometry>
        </mxCell>
        <mxCell id="lbv-A9O-sPdwKagMag57-10" value="&lt;font style=&quot;font-size: 10px;&quot;&gt;Titel&lt;/font&gt;&lt;div style=&quot;font-size: 10px;&quot;&gt;&lt;font style=&quot;font-size: 10px;&quot;&gt;Seiten&lt;/font&gt;&lt;/div&gt;&lt;div style=&quot;font-size: 10px;&quot;&gt;&lt;font style=&quot;font-size: 10px;&quot;&gt;Autor&lt;/font&gt;&lt;/div&gt;&lt;div style=&quot;font-size: 10px;&quot;&gt;&lt;font style=&quot;font-size: 10px;&quot;&gt;Jahr&lt;/font&gt;&lt;/div&gt;&lt;div style=&quot;font-size: 10px;&quot;&gt;&lt;font style=&quot;font-size: 10px;&quot;&gt;Verlag_ID&lt;/font&gt;&lt;/div&gt;&lt;div style=&quot;font-size: 10px;&quot;&gt;&lt;font style=&quot;font-size: 10px;&quot;&gt;Lang&lt;/font&gt;&lt;/div&gt;&lt;div style=&quot;font-size: 10px;&quot;&gt;&lt;u style=&quot;font-size: 10px;&quot;&gt;&lt;font style=&quot;font-size: 10px;&quot;&gt;ISBN&lt;/font&gt;&lt;/u&gt;&lt;/div&gt;&lt;div style=&quot;font-size: 10px;&quot;&gt;&lt;u style=&quot;font-size: 10px;&quot;&gt;&lt;font style=&quot;font-size: 10px;&quot;&gt;UDK&lt;/font&gt;&lt;/u&gt;&lt;/div&gt;" style="align=left;strokeColor=none;fillColor=none;spacingLeft=4;fontSize=10;verticalAlign=top;resizable=0;rotatable=0;part=1;html=1;" vertex="1" parent="lbv-A9O-sPdwKagMag57-9">
          <mxGeometry y="50" width="120" height="110" as="geometry" />
        </mxCell>
        <mxCell id="lbv-A9O-sPdwKagMag57-13" style="edgeStyle=orthogonalEdgeStyle;rounded=0;orthogonalLoop=1;jettySize=auto;html=1;entryX=0.5;entryY=1;entryDx=0;entryDy=0;" edge="1" parent="lbv-A9O-sPdwKagMag57-9" source="lbv-A9O-sPdwKagMag57-9" target="lbv-A9O-sPdwKagMag57-10">
          <mxGeometry relative="1" as="geometry" />
        </mxCell>
        <mxCell id="lbv-A9O-sPdwKagMag57-40" style="edgeStyle=orthogonalEdgeStyle;rounded=0;orthogonalLoop=1;jettySize=auto;html=1;entryX=1;entryY=0.5;entryDx=0;entryDy=0;" edge="1" parent="1" source="lbv-A9O-sPdwKagMag57-21" target="Qy2m-y4au5o0b6GNsIZJ-6">
          <mxGeometry relative="1" as="geometry" />
        </mxCell>
        <mxCell id="lbv-A9O-sPdwKagMag57-21" value="Autor" style="swimlane;childLayout=stackLayout;horizontal=1;startSize=50;horizontalStack=0;rounded=1;strokeWidth=2;resizeParent=0;resizeLast=1;shadow=0;dashed=0;align=center;arcSize=4;whiteSpace=wrap;html=1;" vertex="1" parent="1">
          <mxGeometry x="840" y="280" width="110" height="120" as="geometry">
            <mxRectangle x="840" y="280" width="80" height="50" as="alternateBounds" />
          </mxGeometry>
        </mxCell>
        <mxCell id="lbv-A9O-sPdwKagMag57-22" value="first_name&lt;div&gt;last_name&lt;/div&gt;&lt;div&gt;ISBN&lt;/div&gt;&lt;div&gt;&lt;u&gt;AutorId&lt;/u&gt;&lt;/div&gt;" style="align=left;strokeColor=none;fillColor=none;spacingLeft=4;fontSize=10;verticalAlign=top;resizable=0;rotatable=0;part=1;html=1;" vertex="1" parent="lbv-A9O-sPdwKagMag57-21">
          <mxGeometry y="50" width="110" height="70" as="geometry" />
        </mxCell>
        <mxCell id="lbv-A9O-sPdwKagMag57-23" style="edgeStyle=orthogonalEdgeStyle;rounded=0;orthogonalLoop=1;jettySize=auto;html=1;entryX=0.5;entryY=1;entryDx=0;entryDy=0;" edge="1" parent="lbv-A9O-sPdwKagMag57-21" source="lbv-A9O-sPdwKagMag57-21" target="lbv-A9O-sPdwKagMag57-22">
          <mxGeometry relative="1" as="geometry" />
        </mxCell>
        <mxCell id="lbv-A9O-sPdwKagMag57-29" style="edgeStyle=orthogonalEdgeStyle;rounded=0;orthogonalLoop=1;jettySize=auto;html=1;entryX=-0.004;entryY=0.143;entryDx=0;entryDy=0;entryPerimeter=0;" edge="1" parent="1" target="lbv-A9O-sPdwKagMag57-22">
          <mxGeometry relative="1" as="geometry">
            <mxPoint x="610" y="340" as="sourcePoint" />
            <mxPoint x="840" y="339" as="targetPoint" />
          </mxGeometry>
        </mxCell>
        <mxCell id="lbv-A9O-sPdwKagMag57-30" value="Regal" style="swimlane;childLayout=stackLayout;horizontal=1;startSize=50;horizontalStack=0;rounded=1;strokeWidth=2;resizeParent=0;resizeLast=1;shadow=0;dashed=0;align=center;arcSize=4;whiteSpace=wrap;html=1;" vertex="1" parent="1">
          <mxGeometry x="125" y="760" width="110" height="80" as="geometry">
            <mxRectangle x="840" y="280" width="80" height="50" as="alternateBounds" />
          </mxGeometry>
        </mxCell>
        <mxCell id="lbv-A9O-sPdwKagMag57-31" value="&lt;u&gt;RegelNr&lt;/u&gt;" style="align=left;strokeColor=none;fillColor=none;spacingLeft=4;fontSize=10;verticalAlign=top;resizable=0;rotatable=0;part=1;html=1;" vertex="1" parent="lbv-A9O-sPdwKagMag57-30">
          <mxGeometry y="50" width="110" height="30" as="geometry" />
        </mxCell>
        <mxCell id="lbv-A9O-sPdwKagMag57-32" style="edgeStyle=orthogonalEdgeStyle;rounded=0;orthogonalLoop=1;jettySize=auto;html=1;entryX=0.5;entryY=1;entryDx=0;entryDy=0;" edge="1" parent="lbv-A9O-sPdwKagMag57-30" source="lbv-A9O-sPdwKagMag57-30" target="lbv-A9O-sPdwKagMag57-31">
          <mxGeometry relative="1" as="geometry" />
        </mxCell>
        <mxCell id="lbv-A9O-sPdwKagMag57-42" style="edgeStyle=orthogonalEdgeStyle;rounded=0;orthogonalLoop=1;jettySize=auto;html=1;entryX=0.5;entryY=1;entryDx=0;entryDy=0;" edge="1" parent="1" source="lbv-A9O-sPdwKagMag57-34" target="Qy2m-y4au5o0b6GNsIZJ-6">
          <mxGeometry relative="1" as="geometry" />
        </mxCell>
        <mxCell id="lbv-A9O-sPdwKagMag57-34" value="Verlag" style="swimlane;childLayout=stackLayout;horizontal=1;startSize=50;horizontalStack=0;rounded=1;strokeWidth=2;resizeParent=0;resizeLast=1;shadow=0;dashed=0;align=center;arcSize=4;whiteSpace=wrap;html=1;" vertex="1" parent="1">
          <mxGeometry x="510" y="560" width="120" height="100" as="geometry">
            <mxRectangle x="840" y="280" width="80" height="50" as="alternateBounds" />
          </mxGeometry>
        </mxCell>
        <mxCell id="lbv-A9O-sPdwKagMag57-35" value="Name&lt;div&gt;ISBN&lt;/div&gt;&lt;div&gt;&lt;u&gt;VerlagID&lt;/u&gt;&lt;/div&gt;" style="align=left;strokeColor=none;fillColor=none;spacingLeft=4;fontSize=10;verticalAlign=top;resizable=0;rotatable=0;part=1;html=1;" vertex="1" parent="lbv-A9O-sPdwKagMag57-34">
          <mxGeometry y="50" width="120" height="50" as="geometry" />
        </mxCell>
        <mxCell id="lbv-A9O-sPdwKagMag57-36" style="edgeStyle=orthogonalEdgeStyle;rounded=0;orthogonalLoop=1;jettySize=auto;html=1;entryX=0.5;entryY=1;entryDx=0;entryDy=0;" edge="1" parent="lbv-A9O-sPdwKagMag57-34" source="lbv-A9O-sPdwKagMag57-34" target="lbv-A9O-sPdwKagMag57-35">
          <mxGeometry relative="1" as="geometry" />
        </mxCell>
        <mxCell id="lbv-A9O-sPdwKagMag57-38" style="edgeStyle=orthogonalEdgeStyle;rounded=0;orthogonalLoop=1;jettySize=auto;html=1;entryX=0;entryY=0.5;entryDx=0;entryDy=0;" edge="1" parent="1" source="lbv-A9O-sPdwKagMag57-10" target="Qy2m-y4au5o0b6GNsIZJ-6">
          <mxGeometry relative="1" as="geometry">
            <Array as="points">
              <mxPoint x="310" y="340" />
              <mxPoint x="310" y="340" />
            </Array>
          </mxGeometry>
        </mxCell>
        <mxCell id="lbv-A9O-sPdwKagMag57-41" style="edgeStyle=orthogonalEdgeStyle;rounded=0;orthogonalLoop=1;jettySize=auto;html=1;" edge="1" parent="1" source="Qy2m-y4au5o0b6GNsIZJ-6">
          <mxGeometry relative="1" as="geometry">
            <mxPoint x="240" y="340" as="targetPoint" />
            <Array as="points">
              <mxPoint x="383" y="340" />
            </Array>
          </mxGeometry>
        </mxCell>
        <mxCell id="lbv-A9O-sPdwKagMag57-43" value="CD" style="swimlane;childLayout=stackLayout;horizontal=1;startSize=50;horizontalStack=0;rounded=1;strokeWidth=2;resizeParent=0;resizeLast=1;shadow=0;dashed=0;align=center;arcSize=4;whiteSpace=wrap;html=1;" vertex="1" parent="1">
          <mxGeometry x="760" y="720" width="120" height="160" as="geometry">
            <mxRectangle x="140" y="355" width="80" height="50" as="alternateBounds" />
          </mxGeometry>
        </mxCell>
        <mxCell id="lbv-A9O-sPdwKagMag57-44" value="&lt;div style=&quot;font-size: 10px;&quot;&gt;&lt;u style=&quot;font-size: 10px;&quot;&gt;&lt;font style=&quot;font-size: 10px;&quot;&gt;ISBN&lt;/font&gt;&lt;/u&gt;&lt;/div&gt;&lt;div style=&quot;font-size: 10px;&quot;&gt;&lt;span style=&quot;font-size: 10px;&quot;&gt;&lt;font style=&quot;font-size: 10px;&quot;&gt;Albumtitel&lt;/font&gt;&lt;/span&gt;&lt;/div&gt;&lt;div style=&quot;font-size: 10px;&quot;&gt;&lt;span style=&quot;font-size: 10px;&quot;&gt;&lt;font style=&quot;font-size: 10px;&quot;&gt;Interpret_ID&lt;/font&gt;&lt;/span&gt;&lt;/div&gt;" style="align=left;strokeColor=none;fillColor=none;spacingLeft=4;fontSize=10;verticalAlign=top;resizable=0;rotatable=0;part=1;html=1;" vertex="1" parent="lbv-A9O-sPdwKagMag57-43">
          <mxGeometry y="50" width="120" height="110" as="geometry" />
        </mxCell>
        <mxCell id="lbv-A9O-sPdwKagMag57-45" style="edgeStyle=orthogonalEdgeStyle;rounded=0;orthogonalLoop=1;jettySize=auto;html=1;entryX=0.5;entryY=1;entryDx=0;entryDy=0;" edge="1" parent="lbv-A9O-sPdwKagMag57-43" source="lbv-A9O-sPdwKagMag57-43" target="lbv-A9O-sPdwKagMag57-44">
          <mxGeometry relative="1" as="geometry" />
        </mxCell>
        <mxCell id="lbv-A9O-sPdwKagMag57-46" style="edgeStyle=orthogonalEdgeStyle;rounded=0;orthogonalLoop=1;jettySize=auto;html=1;" edge="1" parent="1">
          <mxGeometry relative="1" as="geometry">
            <mxPoint x="1040" y="825" as="targetPoint" />
            <mxPoint x="880" y="825" as="sourcePoint" />
          </mxGeometry>
        </mxCell>
        <mxCell id="lbv-A9O-sPdwKagMag57-47" value="Lied" style="swimlane;childLayout=stackLayout;horizontal=1;startSize=50;horizontalStack=0;rounded=1;strokeWidth=2;resizeParent=0;resizeLast=1;shadow=0;dashed=0;align=center;arcSize=4;whiteSpace=wrap;html=1;" vertex="1" parent="1">
          <mxGeometry x="1040" y="760" width="120" height="120" as="geometry">
            <mxRectangle x="140" y="355" width="80" height="50" as="alternateBounds" />
          </mxGeometry>
        </mxCell>
        <mxCell id="lbv-A9O-sPdwKagMag57-48" value="&lt;div style=&quot;font-size: 10px;&quot;&gt;&lt;u style=&quot;font-size: 10px;&quot;&gt;&lt;font style=&quot;font-size: 10px;&quot;&gt;ISBN&lt;/font&gt;&lt;/u&gt;&lt;/div&gt;&lt;div style=&quot;font-size: 10px;&quot;&gt;&lt;u style=&quot;font-size: 10px;&quot;&gt;&lt;font style=&quot;font-size: 10px;&quot;&gt;Track&lt;/font&gt;&lt;/u&gt;&lt;/div&gt;&lt;div style=&quot;font-size: 10px;&quot;&gt;Titel&lt;/div&gt;" style="align=left;strokeColor=none;fillColor=none;spacingLeft=4;fontSize=10;verticalAlign=top;resizable=0;rotatable=0;part=1;html=1;" vertex="1" parent="lbv-A9O-sPdwKagMag57-47">
          <mxGeometry y="50" width="120" height="70" as="geometry" />
        </mxCell>
        <mxCell id="lbv-A9O-sPdwKagMag57-49" style="edgeStyle=orthogonalEdgeStyle;rounded=0;orthogonalLoop=1;jettySize=auto;html=1;entryX=0.5;entryY=1;entryDx=0;entryDy=0;" edge="1" parent="lbv-A9O-sPdwKagMag57-47" source="lbv-A9O-sPdwKagMag57-47" target="lbv-A9O-sPdwKagMag57-48">
          <mxGeometry relative="1" as="geometry" />
        </mxCell>
        <mxCell id="lbv-A9O-sPdwKagMag57-52" value="Interpret" style="swimlane;childLayout=stackLayout;horizontal=1;startSize=50;horizontalStack=0;rounded=1;strokeWidth=2;resizeParent=0;resizeLast=1;shadow=0;dashed=0;align=center;arcSize=4;whiteSpace=wrap;html=1;" vertex="1" parent="1">
          <mxGeometry x="1040" y="920" width="120" height="120" as="geometry">
            <mxRectangle x="140" y="355" width="80" height="50" as="alternateBounds" />
          </mxGeometry>
        </mxCell>
        <mxCell id="lbv-A9O-sPdwKagMag57-53" value="&lt;div style=&quot;font-size: 10px;&quot;&gt;&lt;u&gt;InterpretID&lt;/u&gt;&lt;/div&gt;&lt;div style=&quot;font-size: 10px;&quot;&gt;Interpret&lt;/div&gt;" style="align=left;strokeColor=none;fillColor=none;spacingLeft=4;fontSize=10;verticalAlign=top;resizable=0;rotatable=0;part=1;html=1;" vertex="1" parent="lbv-A9O-sPdwKagMag57-52">
          <mxGeometry y="50" width="120" height="70" as="geometry" />
        </mxCell>
        <mxCell id="lbv-A9O-sPdwKagMag57-54" style="edgeStyle=orthogonalEdgeStyle;rounded=0;orthogonalLoop=1;jettySize=auto;html=1;entryX=0.5;entryY=1;entryDx=0;entryDy=0;" edge="1" parent="lbv-A9O-sPdwKagMag57-52" source="lbv-A9O-sPdwKagMag57-52" target="lbv-A9O-sPdwKagMag57-53">
          <mxGeometry relative="1" as="geometry" />
        </mxCell>
        <mxCell id="lbv-A9O-sPdwKagMag57-55" style="edgeStyle=orthogonalEdgeStyle;rounded=0;orthogonalLoop=1;jettySize=auto;html=1;entryX=0;entryY=0.5;entryDx=0;entryDy=0;" edge="1" parent="1" source="lbv-A9O-sPdwKagMag57-44" target="lbv-A9O-sPdwKagMag57-53">
          <mxGeometry relative="1" as="geometry" />
        </mxCell>
      </root>
    </mxGraphModel>
  </diagram>
</mxfile>
